<svg xmlns="http://www.w3.org/2000/svg" viewBox="0 0 20.81 24.28"><defs><style>.cls-1{fill:#fff;}</style></defs><title>lead_form</title><g id="Layer_2" data-name="Layer 2"><g id="Layer_1-2" data-name="Layer 1"><path class="cls-1" d="M19.88,15.62a11.08,11.08,0,0,0-.8,3v3.91a1.73,1.73,0,0,1-1.74,1.73H8.67a1.72,1.72,0,0,1-1.73-1.73V18.64c0-.65-1.17-1.57-1.61-2a15.45,15.45,0,0,0-1.75-1.36C2.32,14.54,0,14,0,12.14,0,10,1.18,8.24,3.47,8.24a4.85,4.85,0,0,1,1.73.3V3.47a3.47,3.47,0,1,1,6.94,0V5.76a3.84,3.84,0,0,1,1.61.5,3.9,3.9,0,0,1,.59,0A4,4,0,0,1,16.75,7c2.56,0,4.06,1.72,4.06,4.23A12.8,12.8,0,0,1,19.88,15.62ZM16.82,8.77a4.68,4.68,0,0,0-.76.06A2.06,2.06,0,0,0,14.35,8a1.94,1.94,0,0,0-.94.25,2.15,2.15,0,0,0-1.61-.72A2.44,2.44,0,0,0,10.41,8V3.47A1.77,1.77,0,0,0,8.67,1.73,1.79,1.79,0,0,0,6.94,3.47v7.8c-.86,0-1.74-1.3-3.47-1.3-1.3,0-1.74,1-1.74,2.17,0,.38,1.58,1.07,1.89,1.22s.59.33.88.5a13.86,13.86,0,0,1,2,1.52c1,.87,2.21,1.83,2.21,3.26v.44h8.67v-.44c0-2.37,1.74-4.68,1.74-7.31C19.08,9.8,18.45,8.77,16.82,8.77Zm-.34,12a.87.87,0,1,0,.86.87A.88.88,0,0,0,16.48,20.81Z"/></g></g></svg>