<svg xmlns="http://www.w3.org/2000/svg" viewBox="0 0 21.08 21.08"><defs><style>.cls-1{fill:#fff;}</style></defs><title>phone</title><g id="Layer_2" data-name="Layer 2"><g id="Layer_1-2" data-name="Layer 1"><path class="cls-1" d="M20.61,18.73a3.91,3.91,0,0,1-1.82,1.58,5.77,5.77,0,0,1-2.79.77,11.39,11.39,0,0,1-3.92-1A14,14,0,0,1,9.46,18.8a25.31,25.31,0,0,1-7.18-7.18A14.3,14.3,0,0,1,1,9,11.66,11.66,0,0,1,0,5.07,5.69,5.69,0,0,1,.76,2.29,4.06,4.06,0,0,1,2.35.46,6.75,6.75,0,0,1,4.43,0a.88.88,0,0,1,.32,0c.31.11.64.84.79,1.14C6,2,6.48,2.9,7,3.74c.23.39.68.87.68,1.33C7.66,6,5,7.32,5,8.13a3.27,3.27,0,0,0,.59,1.29,14.91,14.91,0,0,0,6.12,6.12,3.18,3.18,0,0,0,1.29.58c.81,0,2.14-2.71,3.05-2.71.47,0,.94.45,1.33.69.84.49,1.71,1,2.56,1.44.3.15,1,.48,1.14.79a.72.72,0,0,1,0,.32A6.61,6.61,0,0,1,20.61,18.73Z"/></g></g></svg>