<svg xmlns="http://www.w3.org/2000/svg" viewBox="0 0 25.01 25.2"><defs><style>.cls-1{fill:#fff;}</style></defs><title>WATTSUP</title><g id="Layer_2" data-name="Layer 2"><g id="Layer_1-2" data-name="Layer 1"><path class="cls-1" d="M25,12.28A12.28,12.28,0,0,1,6.79,23L0,25.2l2.21-6.59A12.28,12.28,0,1,1,25,12.28Zm-2.05,0a10.23,10.23,0,1,0-18.5,6L3.17,22.06l4-1.25A10.21,10.21,0,0,0,23,12.28Zm-3.88,3.17a.72.72,0,0,1,0,.24,3.72,3.72,0,0,1-.27,1.24A3.4,3.4,0,0,1,16,18.43a10.47,10.47,0,0,1-3.09-1,12.67,12.67,0,0,1-5.18-4.93A5.81,5.81,0,0,1,6.59,9.33V9.2A3.44,3.44,0,0,1,7.8,6.63a1.16,1.16,0,0,1,.85-.36c.19,0,.39.05.6.05.44,0,.52.13.68.55s1,2.49,1,2.65c0,.62-1.13,1.32-1.13,1.7a.57.57,0,0,0,.08.24,8.26,8.26,0,0,0,1.66,2.23A9.64,9.64,0,0,0,14,15.34a.79.79,0,0,0,.36.11c.49,0,1.3-1.58,1.73-1.58A16.19,16.19,0,0,1,19.08,15.45Z"/></g></g></svg>